<svg width="33" height="30" fill="none" xmlns="http://www.w3.org/2000/svg"><g clip-path="url(#clip0)" filter="url(#filter0_d)"><path d="M19.934 4.13a.794.794 0 000 1.116l6.401 6.465H4.781a.785.785 0 00-.781.79c0 .435.35.789.781.789h21.554l-6.4 6.465a.794.794 0 000 1.116c.305.308.8.308 1.104 0l7.735-7.813a.802.802 0 000-1.116l-7.735-7.813a.776.776 0 00-1.105.001c-.305.308.305-.309 0 0z" fill="#fff"/></g><defs><clipPath id="clip0"><path fill="#fff" transform="rotate(-90 14.5 10.5)" d="M0 0h25v25H0z"/></clipPath><filter id="filter0_d" x="0" y="0" width="33" height="33" filterUnits="userSpaceOnUse" color-interpolation-filters="sRGB"><feFlood flood-opacity="0" result="BackgroundImageFix"/><feColorMatrix in="SourceAlpha" values="0 0 0 0 0 0 0 0 0 0 0 0 0 0 0 0 0 0 127 0"/><feOffset dy="4"/><feGaussianBlur stdDeviation="2"/><feColorMatrix values="0 0 0 0 0 0 0 0 0 0 0 0 0 0 0 0 0 0 0.25 0"/><feBlend in2="BackgroundImageFix" result="effect1_dropShadow"/><feBlend in="SourceGraphic" in2="effect1_dropShadow" result="shape"/></filter></defs></svg>