<svg width="31" height="30" fill="none" xmlns="http://www.w3.org/2000/svg"><path d="M30.047 29.125V10.722c0-.19-.246-.428-.485-.605l-4.959-3.491V2.768c0-.379-.327-.636-.655-.636h-5.651L15.417.096a.73.73 0 00-.724 0l-2.88 2.036H6.162a.648.648 0 00-.655.636v3.815l-5.022 3.54c-.296.177-.485.41-.485.605v18.525c0 .36.296.611.605.636h28.78c.422-.006.662-.324.662-.764zm-1.248-17.26v16.116l-10.843-8.424L28.8 11.865zm-.485-1.118l-3.71 2.622V8.1l3.71 2.648zM15.027 1.3l1.153.825h-2.313l1.16-.825zm8.266 2.103v10.895l-8.266 5.845-8.267-5.845V3.404h16.533zm-22.04 8.461l10.844 7.692L1.254 28.03V11.865zm4.26 1.553l-3.806-2.69 3.806-2.684v5.374zM2.432 28.672l10.717-8.37 1.48 1.052c.284.208.498.208.788 0l1.48-1.052 10.78 8.37H2.433z" fill="#fff"/></svg>