<svg width="30" height="30" fill="none" xmlns="http://www.w3.org/2000/svg"><g clip-path="url(#clip0)" fill="#fff"><path d="M22.504 0H7.496A1.967 1.967 0 005.53 1.965v26.07c0 1.084.881 1.965 1.965 1.965h15.008a1.967 1.967 0 001.965-1.965V1.965A1.967 1.967 0 0022.504 0zm.965 28.035a.966.966 0 01-.965.965H7.496a.966.966 0 01-.965-.965V1.965c0-.532.433-.965.965-.965h15.008c.532 0 .965.433.965.965v26.07z"/><path d="M22.21 4.557H7.79a.5.5 0 00-.5.5v19.887a.5.5 0 00.5.5h14.42a.5.5 0 00.5-.5V5.057a.5.5 0 00-.5-.5zM8.29 13.933l4.84-8.377h1.358L8.29 16.284v-2.351zm3.685-8.377L8.29 11.934V5.556h3.685zM8.29 18.283l7.353-12.727h6.067v10.569l-4.807 8.32H8.29v-6.162zm9.768 6.161l3.652-6.32v6.32h-3.652zM13.205 3.323h3.59a.5.5 0 000-1h-3.59a.5.5 0 000 1zM15 25.829a1.275 1.275 0 10.002 2.55 1.275 1.275 0 00-.002-2.55zm0 1.548a.275.275 0 110-.55.275.275 0 010 .55z"/></g><defs><clipPath id="clip0"><path fill="#fff" d="M0 0h30v30H0z"/></clipPath></defs></svg>