<svg width="60" height="60" fill="none" xmlns="http://www.w3.org/2000/svg"><path d="M60 30C60 13.432 46.568 0 30 0 13.43 0 0 13.432 0 30c0 16.57 13.43 30 30 30 16.568 0 30-13.43 30-30zM3.692 30C3.692 15.525 15.525 3.75 30 3.75S56.25 15.525 56.25 30 44.475 56.25 30 56.25 3.692 44.475 3.692 30z" fill="#072969"/><path d="M35.475 43.826c.105-.251.148-.517.14-.785V16.9c.046-1.664-2.006-2.588-3.19-1.392L19.488 28.631c-.717.724-.717 1.956 0 2.68L32.41 44.419c.925.97 2.565.645 3.064-.593.103-.251-.278.688 0 0 .103-.251-.278.688 0 0 .103-.251-.278.688 0 0zM23.46 29.97l8.426-8.548v17.096L23.46 29.97z" fill="#072969"/></svg>