<svg width="38" height="48" fill="none" xmlns="http://www.w3.org/2000/svg"><g filter="url(#filter0_d)" fill="#fff"><path d="M19 0C11.634 0 5.64 6.308 5.64 14.063c0 2.62.69 5.176 1.995 7.394L18.24 39.446a1.1 1.1 0 00.946.554h.008c.389-.003.747-.22.947-.57l10.334-18.163a14.61 14.61 0 001.884-7.204C32.36 6.308 26.366 0 19 0zm9.564 20.064L19.17 36.577 9.527 20.222a12.164 12.164 0 01-1.675-6.16c0-6.461 5.01-11.734 11.148-11.734 6.139 0 11.14 5.273 11.14 11.735 0 2.118-.55 4.194-1.576 6z"/><path d="M19 7.031c-3.683 0-6.68 3.154-6.68 7.032 0 3.852 2.948 7.03 6.68 7.03 3.778 0 6.68-3.22 6.68-7.03 0-3.878-2.997-7.032-6.68-7.032zm0 11.735c-2.468 0-4.468-2.112-4.468-4.703 0-2.585 2.012-4.704 4.468-4.704s4.46 2.119 4.46 4.704c0 2.553-1.953 4.703-4.46 4.703z"/></g><defs><filter id="filter0_d" x="-4" y="0" width="46" height="48" filterUnits="userSpaceOnUse" color-interpolation-filters="sRGB"><feFlood flood-opacity="0" result="BackgroundImageFix"/><feColorMatrix in="SourceAlpha" values="0 0 0 0 0 0 0 0 0 0 0 0 0 0 0 0 0 0 127 0"/><feOffset dy="4"/><feGaussianBlur stdDeviation="2"/><feColorMatrix values="0 0 0 0 0 0 0 0 0 0 0 0 0 0 0 0 0 0 0.25 0"/><feBlend in2="BackgroundImageFix" result="effect1_dropShadow"/><feBlend in="SourceGraphic" in2="effect1_dropShadow" result="shape"/></filter></defs></svg>