<svg width="60" height="60" viewBox="0 0 60 60" fill="none" xmlns="http://www.w3.org/2000/svg">
<path d="M60 30C60 13.4325 46.5675 0 30 0C13.4306 0 0 13.4325 0 30C0 46.5694 13.4306 60 30 60C46.5675 60 60 46.5694 60 30ZM3.69192 30C3.69192 15.525 15.525 3.75006 30 3.75006C44.475 3.75006 56.2499 15.525 56.2499 30C56.2499 44.475 44.475 56.2499 30 56.2499C15.525 56.2499 3.69192 44.475 3.69192 30Z" fill="#072969"/>
<path d="M35.475 43.8263C35.58 43.575 35.623 43.3088 35.6155 43.0406V16.8995C35.6606 15.2363 33.6094 14.3119 32.4242 15.5083L19.4886 28.6314C18.7723 29.3552 18.7723 30.5871 19.4886 31.3107L32.4111 44.4188C33.3357 45.3883 34.9762 45.0638 35.475 43.8263C35.5781 43.575 35.1975 44.5144 35.475 43.8263C35.5781 43.575 35.1975 44.5144 35.475 43.8263C35.5781 43.575 35.1975 44.5144 35.475 43.8263ZM23.46 29.97L31.8862 21.4219V38.5181L23.46 29.97Z" fill="#072969"/>
</svg>
