<svg width="60" height="60" viewBox="0 0 60 60" fill="none" xmlns="http://www.w3.org/2000/svg">
<path d="M0 30C0 46.5675 13.4325 60 30 60C46.5694 60 60 46.5675 60 30C60 13.4306 46.5694 0 30 0C13.4325 0 0 13.4306 0 30ZM56.3081 30C56.3081 44.475 44.4731 56.2499 30 56.2499C15.525 56.2499 3.75006 44.475 3.75006 30C3.75006 15.525 15.525 3.75006 30 3.75006C44.475 3.75006 56.3081 15.525 56.3081 30Z" fill="#072969"/>
<path d="M24.525 16.1737C24.4199 16.425 24.3769 16.6912 24.3844 16.9594V43.1006C24.3393 44.7637 26.3906 45.6881 27.5757 44.4919L40.5113 31.3688C41.2276 30.645 41.2276 29.4131 40.5113 28.6895L27.5906 15.5813C26.6644 14.6119 25.0237 14.9362 24.525 16.1737C24.4219 16.425 24.8025 15.4856 24.525 16.1737C24.4219 16.425 24.8025 15.4856 24.525 16.1737C24.4219 16.425 24.8025 15.4856 24.525 16.1737ZM36.5401 30.03L28.1139 38.5781V21.4819L36.5401 30.03Z" fill="#072969"/>
</svg>
