<svg width="33" height="30" viewBox="0 0 33 30" fill="none" xmlns="http://www.w3.org/2000/svg">
<g clip-path="url(#clip0)" filter="url(#filter0_d)">
<path d="M19.9338 4.13C19.629 4.43785 19.6282 4.93788 19.9338 5.24572L26.3352 11.7113H4.78131C4.35 11.7113 4 12.0645 4 12.5005C4 12.9364 4.35007 13.2896 4.78131 13.2896H26.3352L19.9345 19.7552C19.629 20.063 19.629 20.5631 19.9345 20.8709C20.24 21.1788 20.7346 21.1788 21.0394 20.8709L28.7738 13.0584C29.0754 12.7536 29.0754 12.2466 28.7738 11.9418L21.0394 4.12928C20.7338 3.82137 20.2393 3.82137 19.9338 4.13C19.629 4.43785 20.2393 3.82137 19.9338 4.13Z" fill="white"/>
</g>
<defs>
<filter id="filter0_d" x="0" y="0" width="33" height="33" filterUnits="userSpaceOnUse" color-interpolation-filters="sRGB">
<feFlood flood-opacity="0" result="BackgroundImageFix"/>
<feColorMatrix in="SourceAlpha" type="matrix" values="0 0 0 0 0 0 0 0 0 0 0 0 0 0 0 0 0 0 127 0"/>
<feOffset dy="4"/>
<feGaussianBlur stdDeviation="2"/>
<feColorMatrix type="matrix" values="0 0 0 0 0 0 0 0 0 0 0 0 0 0 0 0 0 0 0.25 0"/>
<feBlend mode="normal" in2="BackgroundImageFix" result="effect1_dropShadow"/>
<feBlend mode="normal" in="SourceGraphic" in2="effect1_dropShadow" result="shape"/>
</filter>
<clipPath id="clip0">
<rect width="25" height="25" fill="white" transform="translate(4 25) rotate(-90)"/>
</clipPath>
</defs>
</svg>
