<svg width="30" height="30" viewBox="0 0 30 30" fill="none" xmlns="http://www.w3.org/2000/svg">
<path d="M21.7208 0H8.27869C3.71382 0 0 3.714 0 8.27887V21.721C0 26.286 3.71382 29.9998 8.27869 29.9998H21.7208C26.286 29.9998 29.9998 26.2858 29.9998 21.721V8.27887C30 3.714 26.286 0 21.7208 0ZM27.3383 21.721C27.3383 24.8183 24.8183 27.3381 21.721 27.3381H8.27869C5.1815 27.3383 2.66173 24.8183 2.66173 21.721V8.27887C2.66173 5.18168 5.1815 2.66173 8.27869 2.66173H21.7208C24.8181 2.66173 27.3381 5.18168 27.3381 8.27887V21.721H27.3383Z" fill="white"/>
<path d="M14.9998 7.27002C10.7374 7.27002 7.26965 10.7377 7.26965 15.0002C7.26965 19.2625 10.7374 22.7301 14.9998 22.7301C19.2623 22.7301 22.73 19.2625 22.73 15.0002C22.73 10.7377 19.2623 7.27002 14.9998 7.27002ZM14.9998 20.0681C12.2052 20.0681 9.93138 17.7947 9.93138 15C9.93138 12.2052 12.205 9.93157 14.9998 9.93157C17.7947 9.93157 20.0683 12.2052 20.0683 15C20.0683 17.7947 17.7945 20.0681 14.9998 20.0681Z" fill="white"/>
<path d="M23.0542 5.01318C22.5414 5.01318 22.0376 5.2208 21.6755 5.58457C21.3115 5.94656 21.1023 6.45052 21.1023 6.96512C21.1023 7.47812 21.3117 7.9819 21.6755 8.34567C22.0374 8.70766 22.5414 8.91705 23.0542 8.91705C23.5688 8.91705 24.071 8.70766 24.4348 8.34567C24.7985 7.9819 25.0062 7.47795 25.0062 6.96512C25.0062 6.45052 24.7985 5.94656 24.4348 5.58457C24.0728 5.2208 23.5688 5.01318 23.0542 5.01318Z" fill="white"/>
</svg>
