<svg width="31" height="30" viewBox="0 0 31 30" fill="none" xmlns="http://www.w3.org/2000/svg">
<path d="M30.0469 29.1247C30.0469 29.1247 30.0469 15.3197 30.0469 10.7221C30.0469 10.5326 29.8012 10.2942 29.5617 10.1169L24.6033 6.62584V2.76802C24.6033 2.38897 24.2757 2.13219 23.948 2.13219H18.2965L15.4172 0.0962925C15.2219 -0.0320975 14.8943 -0.0320975 14.6927 0.0962925L11.8134 2.13219H6.16185C5.77122 2.13219 5.5066 2.45011 5.5066 2.76802V6.58304L0.48514 10.123C0.189014 10.3003 0 10.5326 0 10.7282C0 15.3564 0 29.2531 0 29.2531C0 29.6138 0.296121 29.8645 0.60484 29.8889C0.62375 29.8889 0.63635 29.8889 0.65525 29.8889H29.3853C29.8075 29.8828 30.0469 29.5649 30.0469 29.1247ZM28.7994 11.8654V27.9814L17.9563 19.5566L28.7994 11.8654ZM28.3143 10.7466L24.6033 13.3694V8.09927L28.3143 10.7466ZM15.0266 1.30071L16.1796 2.12607H13.8673L15.0266 1.30071ZM23.2928 3.40386V14.2987L15.0266 20.1435L6.76039 14.2987V3.40386H23.2928ZM1.25379 11.8654L12.0969 19.5566L1.25379 28.0303V11.8654ZM5.5129 13.4183L1.70742 10.7282L5.5129 8.04424V13.4183ZM2.43198 28.6723L13.1491 20.3025L14.6297 21.354C14.9132 21.5619 15.1274 21.5619 15.4172 21.354L16.8978 20.3025L27.6779 28.6723H2.43198Z" fill="white"/>
</svg>
