<svg width="30" height="30" viewBox="0 0 30 30" fill="none" xmlns="http://www.w3.org/2000/svg">
<g clip-path="url(#clip0)">
<path d="M22.5041 0H7.49592C6.41248 0 5.53101 0.881471 5.53101 1.96498V28.0351C5.53101 29.1186 6.41248 30.0001 7.49598 30.0001H22.5042C23.5877 30.0001 24.4692 29.1186 24.4692 28.0351V1.96498C24.4691 0.881471 23.5876 0 22.5041 0ZM23.4692 28.0351C23.4692 28.5672 23.0363 29.0002 22.5041 29.0002H7.49592C6.9638 29.0002 6.53079 28.5673 6.53079 28.0351V1.96498C6.53079 1.43286 6.96373 0.999853 7.49592 0.999853H22.5041C23.0362 0.999853 23.4692 1.43279 23.4692 1.96498V28.0351Z" fill="white"/>
<path d="M22.2097 4.55664H7.79033C7.51424 4.55664 7.29041 4.78047 7.29041 5.05657V24.944C7.29041 25.2201 7.51424 25.4439 7.79033 25.4439H22.2098C22.4859 25.4439 22.7097 25.2201 22.7097 24.944V5.05657C22.7096 4.78047 22.4858 4.55664 22.2097 4.55664ZM8.29026 13.9327L13.1297 5.55649H14.4882L8.29026 16.2841V13.9327ZM11.975 5.55649L8.29026 11.9341V5.55649H11.975ZM8.29026 18.2828L15.6429 5.55649H21.7098V16.1248L16.9033 24.4441H8.29026V18.2828ZM18.058 24.4441L21.7098 18.1235V24.4441H18.058Z" fill="white"/>
<path d="M13.2054 3.32261H16.7947C17.0708 3.32261 17.2946 3.09877 17.2946 2.82268C17.2946 2.54659 17.0708 2.32275 16.7947 2.32275H13.2054C12.9293 2.32275 12.7055 2.54659 12.7055 2.82268C12.7055 3.09877 12.9293 3.32261 13.2054 3.32261Z" fill="white"/>
<path d="M15 25.8286C14.2975 25.8286 13.726 26.4001 13.726 27.1027C13.726 27.8053 14.2975 28.3768 15 28.3768C15.7026 28.3768 16.2741 27.8053 16.2741 27.1027C16.2741 26.4001 15.7026 25.8286 15 25.8286ZM15 27.3769C14.8488 27.3769 14.7258 27.2539 14.7258 27.1027C14.7258 26.9514 14.8489 26.8285 15 26.8285C15.1512 26.8285 15.2743 26.9514 15.2743 27.1027C15.2743 27.2539 15.1513 27.3769 15 27.3769Z" fill="white"/>
</g>
<defs>
<clipPath id="clip0">
<rect width="30" height="30" fill="white"/>
</clipPath>
</defs>
</svg>
